<svg xmlns="http://www.w3.org/2000/svg" xmlns:xlink="http://www.w3.org/1999/xlink" version="1.1" width="256" height="256" viewBox="0 0 256 256" xml:space="preserve">

<defs>
</defs>
<g style="stroke: none; stroke-width: 0; stroke-dasharray: none; stroke-linecap: butt; stroke-linejoin: miter; stroke-miterlimit: 10; fill: none; fill-rule: nonzero; opacity: 1;" transform="translate(1.4065934065934016 1.4065934065934016) scale(2.81 2.81)" >
	<path d="M 38.877 3 c 7.785 0 14.118 6.333 14.118 14.118 v 6.139 c 0 7.785 -6.333 14.118 -14.118 14.118 c -7.785 0 -14.118 -6.333 -14.118 -14.118 v -6.139 C 24.759 9.333 31.092 3 38.877 3 M 38.877 0 L 38.877 0 c -9.415 0 -17.118 7.703 -17.118 17.118 v 6.139 c 0 9.415 7.703 17.118 17.118 17.118 h 0 c 9.415 0 17.118 -7.703 17.118 -17.118 v -6.139 C 55.995 7.703 48.292 0 38.877 0 L 38.877 0 z" style="stroke: none; stroke-width: 1; stroke-dasharray: none; stroke-linecap: butt; stroke-linejoin: miter; stroke-miterlimit: 10; fill: rgb(255,255,255); fill-rule: nonzero; opacity: 1;" transform=" matrix(1 0 0 1 0 0) " stroke-linecap="round" />
	<path d="M 28.783 45.846 c 3.191 1.489 6.582 2.244 10.094 2.244 c 3.512 0 6.902 -0.754 10.093 -2.243 c 5.525 1.049 10.54 4.089 14.101 8.458 c -9.261 2.711 -15.968 11.282 -15.968 21.298 c 0 4.05 1.115 7.983 3.165 11.397 H 9.286 V 69.347 C 9.286 57.902 17.606 47.958 28.783 45.846 M 48.516 42.727 c -2.896 1.499 -6.169 2.363 -9.639 2.363 c -3.47 0 -6.743 -0.863 -9.639 -2.363 C 16.296 44.659 6.286 55.889 6.286 69.347 v 17.707 C 6.286 88.674 7.612 90 9.232 90 h 47.391 c -3.99 -3.521 -6.52 -8.658 -6.52 -14.397 c 0 -10.209 7.969 -18.535 18.022 -19.154 C 64.145 49.228 56.966 43.988 48.516 42.727 L 48.516 42.727 z" style="stroke: none; stroke-width: 1; stroke-dasharray: none; stroke-linecap: butt; stroke-linejoin: miter; stroke-miterlimit: 10; fill: rgb(255,255,255); fill-rule: nonzero; opacity: 1;" transform=" matrix(1 0 0 1 0 0) " stroke-linecap="round" />
	<path d="M 69.317 64.206 c 6.284 0 11.397 5.113 11.397 11.397 S 75.601 87 69.317 87 S 57.92 81.887 57.92 75.603 S 63.033 64.206 69.317 64.206 M 69.317 61.206 c -7.951 0 -14.397 6.446 -14.397 14.397 S 61.366 90 69.317 90 s 14.397 -6.446 14.397 -14.397 S 77.268 61.206 69.317 61.206 L 69.317 61.206 z" style="stroke: none; stroke-width: 1; stroke-dasharray: none; stroke-linecap: butt; stroke-linejoin: miter; stroke-miterlimit: 10; fill: rgb(255,255,255); fill-rule: nonzero; opacity: 1;" transform=" matrix(1 0 0 1 0 0) " stroke-linecap="round" />
	<path d="M 75.324 77.104 H 63.31 c -0.828 0 -1.5 -0.672 -1.5 -1.5 s 0.672 -1.5 1.5 -1.5 h 12.015 c 0.828 0 1.5 0.672 1.5 1.5 S 76.152 77.104 75.324 77.104 z" style="stroke: none; stroke-width: 1; stroke-dasharray: none; stroke-linecap: butt; stroke-linejoin: miter; stroke-miterlimit: 10; fill: rgb(255,255,255); fill-rule: nonzero; opacity: 1;" transform=" matrix(1 0 0 1 0 0) " stroke-linecap="round" />
	<path d="M 69.317 83.11 c -0.828 0 -1.5 -0.672 -1.5 -1.5 V 69.596 c 0 -0.828 0.672 -1.5 1.5 -1.5 s 1.5 0.672 1.5 1.5 V 81.61 C 70.817 82.438 70.146 83.11 69.317 83.11 z" style="stroke: none; stroke-width: 1; stroke-dasharray: none; stroke-linecap: butt; stroke-linejoin: miter; stroke-miterlimit: 10; fill: rgb(255,255,255); fill-rule: nonzero; opacity: 1;" transform=" matrix(1 0 0 1 0 0) " stroke-linecap="round" />
</g>
</svg>