<svg xmlns="http://www.w3.org/2000/svg" xmlns:xlink="http://www.w3.org/1999/xlink" version="1.1" width="256" height="256" viewBox="0 0 256 256" xml:space="preserve">

<defs>
</defs>
<g style="stroke: none; stroke-width: 0; stroke-dasharray: none; stroke-linecap: butt; stroke-linejoin: miter; stroke-miterlimit: 10; fill: none; fill-rule: nonzero; opacity: 1;" transform="translate(1.4065934065934016 1.4065934065934016) scale(2.81 2.81)" >
	<path d="M 63.02 64.071 H 26.98 c -3.022 0 -5.48 -2.475 -5.48 -5.517 V 37.829 c 0 -3.042 2.458 -5.517 5.48 -5.517 h 3.972 c 0.368 0 0.729 -0.064 1.075 -0.19 c 0.733 -0.269 1.341 -0.799 1.709 -1.494 l 0.735 -1.388 c 1.083 -2.042 3.184 -3.311 5.482 -3.311 h 10.602 c 2.299 0 4.399 1.269 5.481 3.311 l 0.736 1.389 c 0.551 1.039 1.618 1.684 2.784 1.684 h 3.461 c 3.021 0 5.48 2.475 5.48 5.517 v 20.726 c 0 1.849 -0.913 3.564 -2.441 4.592 C 65.158 63.752 64.107 64.071 63.02 64.071 z M 26.98 34.312 c -1.919 0 -3.48 1.578 -3.48 3.517 v 20.726 c 0 1.939 1.562 3.517 3.48 3.517 H 63.02 c 0.688 0 1.354 -0.202 1.924 -0.585 c 0.975 -0.655 1.557 -1.751 1.557 -2.932 V 37.829 c 0 -1.939 -1.562 -3.517 -3.48 -3.517 h -3.461 c -1.908 0 -3.652 -1.053 -4.552 -2.747 v 0 l -0.736 -1.389 c -0.734 -1.386 -2.157 -2.247 -3.714 -2.247 H 39.955 c -1.556 0 -2.98 0.861 -3.715 2.248 l -0.735 1.388 c -0.601 1.132 -1.591 1.997 -2.79 2.436 c -0.567 0.207 -1.16 0.312 -1.762 0.312 H 26.98 z" style="stroke: none; stroke-width: 1; stroke-dasharray: none; stroke-linecap: butt; stroke-linejoin: miter; stroke-miterlimit: 10; fill: rgb(210,210,210); fill-rule: nonzero; opacity: 1;" transform=" matrix(1 0 0 1 0 0) " stroke-linecap="round" />
	<path d="M 45 56.542 c -5.676 0 -10.293 -4.651 -10.293 -10.369 c 0 -2.768 1.069 -5.371 3.012 -7.329 c 0.993 -1.001 2.156 -1.775 3.455 -2.3 c 1.217 -0.491 2.504 -0.74 3.826 -0.74 c 5.676 0 10.293 4.651 10.293 10.369 c 0 1.328 -0.246 2.623 -0.732 3.849 c -0.52 1.308 -1.286 2.479 -2.279 3.48 C 50.338 55.462 47.752 56.542 45 56.542 z M 45 37.804 c -1.064 0 -2.1 0.2 -3.077 0.595 c -1.046 0.422 -1.983 1.046 -2.784 1.854 c -1.568 1.581 -2.432 3.684 -2.432 5.92 c 0 4.615 3.72 8.369 8.293 8.369 c 2.215 0 4.296 -0.869 5.861 -2.448 c 0.802 -0.809 1.421 -1.755 1.84 -2.81 c 0.393 -0.989 0.592 -2.036 0.592 -3.111 C 53.293 41.559 49.573 37.804 45 37.804 z" style="stroke: none; stroke-width: 1; stroke-dasharray: none; stroke-linecap: butt; stroke-linejoin: miter; stroke-miterlimit: 10; fill: rgb(210,210,210); fill-rule: nonzero; opacity: 1;" transform=" matrix(1 0 0 1 0 0) " stroke-linecap="round" />
	<path d="M 45 90 C 20.187 90 0 69.813 0 45 C 0 20.187 20.187 0 45 0 c 24.813 0 45 20.187 45 45 C 90 69.813 69.813 90 45 90 z M 45 2 C 21.29 2 2 21.29 2 45 c 0 23.71 19.29 43 43 43 c 23.71 0 43 -19.29 43 -43 C 88 21.29 68.71 2 45 2 z" style="stroke: none; stroke-width: 1; stroke-dasharray: none; stroke-linecap: butt; stroke-linejoin: miter; stroke-miterlimit: 10; fill: rgb(210,210,210); fill-rule: nonzero; opacity: 1;" transform=" matrix(1 0 0 1 0 0) " stroke-linecap="round" />
</g>
</svg>