<svg xmlns="http://www.w3.org/2000/svg" xmlns:xlink="http://www.w3.org/1999/xlink" version="1.1" width="256" height="256" viewBox="0 0 256 256" xml:space="preserve">

<defs>
</defs>
<g style="stroke: none; stroke-width: 0; stroke-dasharray: none; stroke-linecap: butt; stroke-linejoin: miter; stroke-miterlimit: 10; fill: none; fill-rule: nonzero; opacity: 1;" transform="translate(1.4065934065934016 1.4065934065934016) scale(2.81 2.81)" >
	<path d="M 81.907 82.479 H 19.99 c -4.462 0 -8.093 -3.631 -8.093 -8.093 V 31.9 c 0 -4.462 3.631 -8.093 8.093 -8.093 h 61.917 c 4.462 0 8.093 3.63 8.093 8.093 v 42.485 C 90 78.848 86.369 82.479 81.907 82.479 z M 19.99 27.808 c -2.257 0 -4.093 1.836 -4.093 4.093 v 42.485 c 0 2.257 1.836 4.093 4.093 4.093 h 61.917 c 2.257 0 4.093 -1.836 4.093 -4.093 V 31.9 c 0 -2.257 -1.836 -4.093 -4.093 -4.093 H 19.99 z" style="stroke: none; stroke-width: 1; stroke-dasharray: none; stroke-linecap: butt; stroke-linejoin: miter; stroke-miterlimit: 10; fill: rgb(255,255,255); fill-rule: nonzero; opacity: 1;" transform=" matrix(1 0 0 1 0 0) " stroke-linecap="round" />
	<path d="M 12.87 72.892 c -4.059 0 -7.569 -3.057 -8.037 -7.183 L 0.052 23.493 c -0.502 -4.434 2.697 -8.45 7.131 -8.953 l 61.524 -6.967 c 2.145 -0.243 4.262 0.364 5.952 1.711 c 1.691 1.347 2.756 3.271 2.999 5.419 l 1.232 10.878 l -3.975 0.45 l -1.232 -10.879 c -0.123 -1.086 -0.661 -2.06 -1.517 -2.741 s -1.931 -0.985 -3.01 -0.865 L 7.633 18.515 c -2.242 0.254 -3.86 2.285 -3.606 4.528 l 4.781 42.216 c 0.254 2.241 2.28 3.857 4.528 3.606 l 0.228 -0.025 l 0.564 0.065 l -0.399 3.438 l 0.056 0.496 c -0.039 0.004 -0.077 0.009 -0.115 0.013 l -0.003 0.025 l -0.125 -0.015 C 13.316 72.883 13.092 72.892 12.87 72.892 z" style="stroke: none; stroke-width: 1; stroke-dasharray: none; stroke-linecap: butt; stroke-linejoin: miter; stroke-miterlimit: 10; fill: rgb(255,255,255); fill-rule: nonzero; opacity: 1;" transform=" matrix(1 0 0 1 0 0) " stroke-linecap="round" />
	<path d="M 14.775 66.911 l -1.757 -3.594 L 34.38 52.874 c 2.675 -1.307 5.865 -0.616 7.758 1.68 l 2.995 3.631 c 0.699 0.846 1.879 1.115 2.874 0.65 l 39.148 -18.233 l 1.689 3.626 L 49.696 62.462 c -2.646 1.229 -5.791 0.52 -7.649 -1.732 l -2.995 -3.631 c -0.712 -0.863 -1.913 -1.122 -2.915 -0.631 L 14.775 66.911 z" style="stroke: none; stroke-width: 1; stroke-dasharray: none; stroke-linecap: butt; stroke-linejoin: miter; stroke-miterlimit: 10; fill: rgb(255,255,255); fill-rule: nonzero; opacity: 1;" transform=" matrix(1 0 0 1 0 0) " stroke-linecap="round" />
	<path d="M 49.872 51.286 c -4.685 0 -8.496 -3.812 -8.496 -8.496 c 0 -4.685 3.811 -8.496 8.496 -8.496 s 8.495 3.811 8.495 8.496 C 58.367 47.475 54.557 51.286 49.872 51.286 z M 49.872 38.295 c -2.479 0 -4.496 2.017 -4.496 4.496 s 2.017 4.496 4.496 4.496 s 4.495 -2.017 4.495 -4.496 S 52.351 38.295 49.872 38.295 z" style="stroke: none; stroke-width: 1; stroke-dasharray: none; stroke-linecap: butt; stroke-linejoin: miter; stroke-miterlimit: 10; fill: rgb(255,255,255); fill-rule: nonzero; opacity: 1;" transform=" matrix(1 0 0 1 0 0) " stroke-linecap="round" />
</g>
</svg>