<svg xmlns="http://www.w3.org/2000/svg" xmlns:xlink="http://www.w3.org/1999/xlink" version="1.1" width="256" height="256" viewBox="0 0 256 256" xml:space="preserve">

<defs>
</defs>
<g style="stroke: none; stroke-width: 0; stroke-dasharray: none; stroke-linecap: butt; stroke-linejoin: miter; stroke-miterlimit: 10; fill: none; fill-rule: nonzero; opacity: 1;" transform="translate(1.4065934065934016 1.4065934065934016) scale(2.81 2.81)" >
	<path d="M 45 90 C 20.187 90 0 69.813 0 45 C 0 20.187 20.187 0 45 0 c 24.813 0 45 20.187 45 45 C 90 69.813 69.813 90 45 90 z M 45 8 C 24.598 8 8 24.598 8 45 c 0 20.402 16.598 37 37 37 c 20.402 0 37 -16.598 37 -37 C 82 24.598 65.402 8 45 8 z" style="stroke: none; stroke-width: 1; stroke-dasharray: none; stroke-linecap: butt; stroke-linejoin: miter; stroke-miterlimit: 10; fill: rgb(255,255,255); fill-rule: nonzero; opacity: 1;" transform=" matrix(1 0 0 1 0 0) " stroke-linecap="round" />
	<path d="M 45 58.708 c -2.209 0 -4 -1.791 -4 -4 V 22.425 c 0 -2.209 1.791 -4 4 -4 s 4 1.791 4 4 v 32.283 C 49 56.917 47.209 58.708 45 58.708 z" style="stroke: none; stroke-width: 1; stroke-dasharray: none; stroke-linecap: butt; stroke-linejoin: miter; stroke-miterlimit: 10; fill: rgb(255,255,255); fill-rule: nonzero; opacity: 1;" transform=" matrix(1 0 0 1 0 0) " stroke-linecap="round" />
	<path d="M 45 71.58 c -1.05 0 -2.08 -0.431 -2.83 -1.181 c -0.18 -0.18 -0.35 -0.39 -0.5 -0.6 c -0.14 -0.22 -0.26 -0.45 -0.36 -0.7 c -0.1 -0.24 -0.18 -0.49 -0.23 -0.74 C 41.03 68.1 41 67.84 41 67.58 c 0 -1.061 0.43 -2.09 1.17 -2.83 c 0.19 -0.19 0.39 -0.36 0.61 -0.5 c 0.22 -0.15 0.45 -0.271 0.69 -0.37 c 0.24 -0.1 0.49 -0.18 0.75 -0.23 c 0.51 -0.1 1.05 -0.1 1.56 0 c 0.26 0.051 0.51 0.131 0.75 0.23 c 0.239 0.1 0.47 0.22 0.689 0.37 c 0.22 0.14 0.42 0.31 0.61 0.5 c 0.739 0.74 1.17 1.77 1.17 2.83 c 0 1.05 -0.431 2.08 -1.17 2.819 c -0.19 0.19 -0.391 0.36 -0.61 0.5 C 47 71.04 46.77 71.17 46.53 71.27 c -0.24 0.101 -0.49 0.181 -0.75 0.23 C 45.52 71.55 45.26 71.58 45 71.58 z" style="stroke: none; stroke-width: 1; stroke-dasharray: none; stroke-linecap: butt; stroke-linejoin: miter; stroke-miterlimit: 10; fill: rgb(255,255,255); fill-rule: nonzero; opacity: 1;" transform=" matrix(1 0 0 1 0 0) " stroke-linecap="round" />
</g>
</svg>